<?xml version="1.0" encoding="UTF-8" ?>
<!DOCTYPE svg PUBLIC "-//W3C//DTD SVG 1.1//EN" "http://www.w3.org/Graphics/SVG/1.1/DTD/svg11.dtd">
<svg width="115pt" height="45pt" viewBox="0 0 115 45" version="1.1" xmlns="http://www.w3.org/2000/svg">
<g id="#f8f8f8ff">
</g>
<g id="#2a2a2aff">
<path fill="#2a2a2a" opacity="1.00" d=" M 22.51 2.15 C 23.34 3.14 25.80 4.09 24.54 5.63 C 21.10 10.13 17.53 14.55 13.99 18.98 C 46.26 19.04 78.52 18.97 110.79 19.01 C 110.79 21.34 110.79 23.66 110.79 25.99 C 78.52 26.04 46.25 25.95 13.99 26.03 C 17.88 30.70 21.44 35.64 25.39 40.27 C 24.47 41.13 23.55 41.98 22.63 42.84 C 16.16 36.67 9.80 30.40 3.37 24.18 C 3.36 23.09 3.34 21.99 3.33 20.90 C 9.67 14.60 16.20 8.48 22.51 2.15 Z" />
</g>
</svg>
