<?xml version="1.0" encoding="UTF-8" ?>
<!DOCTYPE svg PUBLIC "-//W3C//DTD SVG 1.1//EN" "http://www.w3.org/Graphics/SVG/1.1/DTD/svg11.dtd">
<svg width="470pt" height="339pt" viewBox="0 0 470 339" version="1.1" xmlns="http://www.w3.org/2000/svg">
<g id="#4e4d4fff">
<path fill="#4e4d4f" opacity="1.00" d=" M 263.43 2.49 C 263.44 2.48 263.47 2.47 263.48 2.46 C 263.47 2.47 263.44 2.48 263.43 2.49 Z" />
<path fill="#4e4d4f" opacity="1.00" d=" M 291.17 204.29 C 323.99 193.21 355.34 174.24 375.96 145.89 C 375.76 162.03 373.41 178.31 367.36 193.35 C 357.21 219.55 336.52 240.54 312.36 254.32 C 280.15 272.69 243.20 281.45 206.44 284.08 C 206.52 301.70 206.50 319.32 206.45 336.94 C 159.28 309.34 112.15 281.65 65.03 253.97 C 93.98 236.49 123.21 219.47 152.24 202.14 C 171.00 191.12 189.61 179.83 208.46 168.95 C 208.52 184.97 208.44 200.98 208.50 217.00 C 236.45 216.75 264.60 213.27 291.17 204.29 Z" />
</g>
<g id="#010100fe">
<path fill="#010100" opacity="1.00" d=" M 263.48 2.46 C 264.95 1.70 266.49 1.56 268.09 2.03 C 307.26 25.12 346.54 48.05 385.72 71.14 C 391.97 74.46 397.80 78.53 404.14 81.70 C 405.70 82.85 408.37 85.35 406.23 87.17 C 395.47 92.87 385.20 99.44 374.71 105.63 C 363.83 111.63 353.46 118.52 342.58 124.51 C 317.38 139.72 291.89 154.42 266.72 169.65 C 264.85 170.57 261.63 170.55 260.60 168.42 C 259.74 167.12 259.90 165.50 259.83 164.02 C 259.87 152.70 259.83 141.37 259.87 130.05 C 259.94 128.01 259.44 126.04 258.87 124.11 C 252.22 124.54 245.45 123.41 238.89 124.83 C 200.19 127.68 161.49 139.18 129.49 161.58 C 120.18 168.35 111.23 175.71 103.66 184.42 C 101.66 186.78 99.68 191.05 95.91 189.99 C 95.52 189.78 94.75 189.36 94.36 189.15 C 91.61 185.99 92.95 181.07 93.31 177.24 C 95.49 154.09 105.47 131.99 120.17 114.11 C 124.92 109.25 129.84 104.56 134.55 99.67 C 162.07 76.41 197.07 64.14 232.09 57.72 C 237.01 56.88 241.94 56.03 246.91 55.58 C 251.87 54.53 257.00 55.19 261.90 53.72 C 261.78 38.47 261.91 23.22 261.82 7.97 C 261.80 6.04 261.78 3.84 263.43 2.49 C 263.44 2.48 263.47 2.47 263.48 2.46 M 267.16 8.51 C 267.06 24.32 267.29 40.14 267.06 55.95 C 266.34 59.69 261.81 59.20 258.93 59.16 C 255.81 60.55 252.33 60.07 249.02 60.17 C 246.14 61.43 242.92 60.97 239.93 61.76 C 203.34 67.50 166.63 79.81 137.89 103.90 C 130.93 110.61 123.83 117.31 118.47 125.43 C 108.43 139.83 101.99 156.61 99.26 173.93 C 99.16 176.59 98.90 179.25 97.98 181.77 C 119.26 157.31 148.33 140.66 178.87 130.56 C 197.51 124.89 216.75 120.61 236.23 119.76 C 239.34 118.48 242.78 118.97 246.06 118.84 C 251.04 118.92 256.03 118.63 261.01 118.96 C 263.24 119.98 265.46 122.34 265.14 125.01 C 265.18 137.83 265.11 150.65 265.17 163.47 C 309.31 137.30 353.43 111.10 397.62 85.00 C 354.06 59.63 310.65 34.00 267.16 8.51 Z" />
</g>
<g id="#ffffffff">
<path fill="#ffffff" opacity="1.00" d=" M 267.16 8.51 C 310.65 34.00 354.06 59.63 397.62 85.00 C 353.43 111.10 309.31 137.30 265.17 163.47 C 265.11 150.65 265.18 137.83 265.14 125.01 C 265.46 122.34 263.24 119.98 261.01 118.96 C 256.03 118.63 251.04 118.92 246.06 118.84 C 242.78 118.97 239.34 118.48 236.23 119.76 C 216.75 120.61 197.51 124.89 178.87 130.56 C 148.33 140.66 119.26 157.31 97.98 181.77 C 98.90 179.25 99.16 176.59 99.26 173.93 C 101.99 156.61 108.43 139.83 118.47 125.43 C 123.83 117.31 130.93 110.61 137.89 103.90 C 166.63 79.81 203.34 67.50 239.93 61.76 C 242.92 60.97 246.14 61.43 249.02 60.17 C 252.33 60.07 255.81 60.55 258.93 59.16 C 261.81 59.20 266.34 59.69 267.06 55.95 C 267.29 40.14 267.06 24.32 267.16 8.51 Z" />
</g>
</svg>
