<?xml version="1.0" encoding="UTF-8" ?>
<!DOCTYPE svg PUBLIC "-//W3C//DTD SVG 1.1//EN" "http://www.w3.org/Graphics/SVG/1.1/DTD/svg11.dtd">
<svg width="82pt" height="85pt" viewBox="0 0 82 85" version="1.1" xmlns="http://www.w3.org/2000/svg">
<g id="#ffffffff">
</g>
<g id="#000000ff">
<path fill="#000000" opacity="1.00" d=" M 40.33 0.00 L 41.94 0.00 C 53.69 24.32 65.06 48.82 76.90 73.10 C 78.36 76.06 78.81 79.36 79.14 82.60 C 53.41 82.54 27.69 82.72 1.96 82.50 C 2.58 74.99 7.06 68.72 10.06 62.04 C 20.21 41.39 29.88 20.49 40.33 0.00 M 8.01 76.77 C 29.44 76.62 50.88 76.81 72.31 76.67 C 62.12 54.16 51.58 31.79 40.79 9.56 C 29.43 31.74 18.86 54.33 8.01 76.77 Z" />
<path fill="#000000" opacity="1.00" d=" M 37.50 33.37 C 37.51 28.88 44.60 28.93 44.56 33.42 C 44.50 40.55 42.14 47.45 41.15 54.48 C 39.54 47.55 37.65 40.51 37.50 33.37 Z" />
<path fill="#000000" opacity="1.00" d=" M 39.31 59.01 C 44.36 56.54 46.88 65.54 41.76 66.70 C 37.44 67.57 36.23 61.18 39.31 59.01 Z" />
</g>
</svg>
